<?xml version="1.0" standalone="no"?>
<!DOCTYPE svg PUBLIC "-//W3C//DTD SVG 20010904//EN"
 "http://www.w3.org/TR/2001/REC-SVG-20010904/DTD/svg10.dtd">
<svg version="1.0" xmlns="http://www.w3.org/2000/svg"
 width="136.000000pt" height="136.000000pt" viewBox="0 0 136.000000 136.000000"
 preserveAspectRatio="xMidYMid meet">
<metadata>
Created by potrace 1.11, written by Peter Selinger 2001-2013
</metadata>
<g transform="translate(0.000000,136.000000) scale(0.100000,-0.100000)"
fill="#000000" stroke="none">
<path d="M520 1263 c-80 -47 -170 -100 -201 -117 -31 -17 -95 -53 -142 -81
l-87 -50 0 -337 0 -337 63 -37 c34 -20 78 -46 97 -57 19 -10 124 -71 233 -134
142 -83 201 -112 210 -105 6 5 30 20 52 32 56 32 509 293 515 297 6 6 7 645 0
667 -3 10 -28 31 -56 46 -27 15 -132 75 -233 134 -101 58 -185 106 -187 106
-2 0 -25 14 -51 30 -26 17 -52 30 -57 29 -6 0 -76 -39 -156 -86z m305 -134
c77 -44 158 -91 180 -103 22 -13 62 -36 89 -52 l50 -30 0 -267 1 -268 -135
-78 c-74 -43 -157 -91 -184 -106 -28 -15 -72 -41 -99 -57 l-49 -29 -232 134
-231 133 -3 269 -2 270 52 29 c29 16 97 56 151 88 53 32 101 58 105 58 5 0 13
5 20 12 16 16 124 77 137 78 6 0 73 -36 150 -81z"/>
<path d="M601 971 c-144 -54 -214 -161 -207 -317 10 -202 219 -340 414 -273
102 35 129 79 87 142 -25 39 -59 44 -106 17 -66 -37 -155 -25 -200 26 -80 92
-44 228 70 262 44 14 81 8 139 -20 l42 -22 28 21 c72 53 62 110 -27 151 -74
34 -168 39 -240 13z"/>
</g>
</svg>
