<?xml version="1.0" encoding="UTF-8"?>
<svg width="256px" height="256px" viewBox="0 0 256 256" version="1.1" xmlns="http://www.w3.org/2000/svg" xmlns:xlink="http://www.w3.org/1999/xlink">
    <defs></defs>
    <g id="Page-1" stroke="none" stroke-width="1" fill="none" fill-rule="evenodd">
        <g id="slack" fill-rule="nonzero">
            <path d="M165.964,15.838 C162.074,3.863 149.212,-2.69 137.239,1.202 C125.264,5.092 118.711,17.954 122.603,29.927 L181.55,211.292 C185.598,222.479 197.682,228.765 209.282,225.427 C221.382,221.944 228.757,209.093 224.896,197.21 L165.964,15.838" id="Shape" fill="#DFA22F"></path>
            <path d="M74.626,45.516 C70.734,33.542 57.873,26.989 45.9,30.879 C33.924,34.77 27.37,47.631 31.263,59.606 L90.211,240.972 C94.258,252.158 106.343,258.445 117.943,255.104 C130.042,251.623 137.417,238.772 133.556,226.887 L74.626,45.516" id="Shape" fill="#3CB187"></path>
            <path d="M240.162,166.045 C252.137,162.155 258.688,149.295 254.798,137.319 C250.908,125.346 238.046,118.792 226.073,122.683 L44.708,181.632 C33.521,185.678 27.235,197.762 30.573,209.362 C34.056,221.461 46.907,228.837 58.79,224.976 L240.162,166.046" id="Shape" fill="#CE1E5B"></path>
            <polyline id="Shape" fill="#392538" points="82.508 217.27 125.855 203.186 111.769 159.834 68.419 173.924 82.508 217.271"></polyline>
            <path d="M173.847,187.591 C190.235,182.268 205.467,177.318 217.195,173.507 L203.107,130.147 L159.757,144.237 L173.847,187.591" id="Shape" fill="#BB242A"></path>
            <path d="M210.484,74.706 C222.458,70.816 229.011,57.955 225.121,45.979 C221.231,34.006 208.369,27.453 196.394,31.343 L15.028,90.293 C3.842,94.337 -2.445,106.422 0.896,118.022 C4.377,130.12 17.228,137.496 29.113,133.635 L210.484,74.705" id="Shape" fill="#72C5CD"></path>
            <path d="M52.822,125.933 C64.627,122.097 79.847,117.151 96.176,111.847 C90.853,95.457 85.903,80.225 82.092,68.495 L38.732,82.587 L52.822,125.933" id="Shape" fill="#248C73"></path>
            <path d="M144.16,96.256 L187.516,82.168 C182.82027,67.7144707 178.123937,53.2611373 173.427,38.808 L130.07,52.9 L144.16,96.256" id="Shape" fill="#62803A"></path>
        </g>
    </g>
</svg>
